<svg xmlns="http://www.w3.org/2000/svg" width="337" height="92" viewBox="0 0 337 92">
  <g id="Group_30" data-name="Group 30" transform="translate(-4650 -6921)">
    <rect id="logo_white" width="337" height="92" transform="translate(4650 6921)" fill="none"/>
    <g id="SG_SVG_7_" data-name="SG_SVG (7)" transform="translate(4500.47 6629.9)">
      <path id="Path_127" data-name="Path 127" d="M781.6,638.85H617.8a3.648,3.648,0,0,0-3.638,3.657v18.3a3.647,3.647,0,0,0,3.638,3.657H781.6a3.647,3.647,0,0,0,3.636-3.657v-18.3A3.646,3.646,0,0,0,781.6,638.85ZM641.642,659.816h-2.957v-1.686a7.466,7.466,0,0,1-5.7,2.123c-5.416,0-8.854-2.954-8.854-8.643s3.436-8.643,8.917-8.643c4.025,0,6.938,1.6,8.224,4.683l-3.807,1.357c-.719-1.663-2.177-2.537-4.417-2.537-3.175,0-4.871,1.881-4.871,5.141s1.7,5.143,4.871,5.143c2.372,0,3.936-1.073,4.545-2.976H631.57v-2.713h10.07v8.753Zm29.988,0-1-3h-7.461l-.979,3h-4.263l5.918-16.411h6.134l5.916,16.411h-4.262Zm40.036,0h-4v-11.2l-3.784,11.2h-3.917l-3.784-11.2v11.2h-4V643.406h5.961l3.784,10.94,3.784-10.94h5.961v16.411Zm30.832-12.91h-9.526v3.084h8.614v3.239h-8.614v3.084H742.5v3.5H728.97V643.406H742.5Zm25.421,13.478a18.411,18.411,0,0,1-8.528-2.055l1.348-3.523a15.33,15.33,0,0,0,7.332,2.011c1.978,0,3.109-.524,3.109-1.247,0-2.121-11.266-1.86-11.266-7.745,0-2.867,2.764-4.9,7.591-4.9s7.156,2.1,7.156,2.1l-1.762,3.062a11.341,11.341,0,0,0-5.634-1.661c-1.958,0-3.307.59-3.307,1.531,0,2.3,11.311,1.816,11.311,7.658,0,2.253-2.219,4.77-7.353,4.77Z" transform="translate(-379.17 -284.71)" fill="#fff"/>
      <path id="Path_128" data-name="Path 128" d="M1092.205,686.11l-2.175,6.52h5.329l-2.173-6.52Z" transform="translate(-805.165 -323.425)" fill="#fff"/>
      <g id="Group_29" data-name="Group 29" transform="translate(155.03 294.1)">
        <path id="Path_129" data-name="Path 129" d="M166.383,309.762c0-3.772,3.588-5.125,7.6-5.125a20.038,20.038,0,0,1,8.61,1.935,3.189,3.189,0,0,0,3.6-.509l2.773-2.51a3.272,3.272,0,0,0-.138-4.993c-3.873-2.989-8.584-4.46-14.347-4.46-9.089,0-19.45,5.057-19.45,15.6,0,20.071,27.388,13.173,27.388,19.554,0,3.539-5.028,5.63-8.744,5.63a18.813,18.813,0,0,1-10.268-2.983,3.288,3.288,0,0,0-4.093.24l-2.6,2.391a3.3,3.3,0,0,0,.273,5.066,30.7,30.7,0,0,0,17.813,5.733c5.322,0,10.446-1.5,14.126-4.918a15.2,15.2,0,0,0,4.841-11.1c0-19.767-27.382-11.553-27.382-19.549Z" transform="translate(-155.03 -294.1)" fill="#fff"/>
        <path id="Path_130" data-name="Path 130" d="M420.135,299.11H389.013a3.263,3.263,0,0,0-3.253,3.272v4.9a3.264,3.264,0,0,0,3.253,3.274h7.706a2.176,2.176,0,0,1,2.17,2.182v31.731a3.264,3.264,0,0,0,3.253,3.274h4.866a3.265,3.265,0,0,0,3.253-3.274V312.736a2.176,2.176,0,0,1,2.17-2.182h7.706a3.265,3.265,0,0,0,3.255-3.274v-4.9a3.265,3.265,0,0,0-3.255-3.272Z" transform="translate(-345.577 -298.237)" fill="#fff"/>
        <path id="Path_131" data-name="Path 131" d="M639.781,347.79h4.866a3.265,3.265,0,0,0,3.255-3.274V335.2a3.262,3.262,0,0,1,3.253-3.272h1.289a3.255,3.255,0,0,1,2.71,1.459l8.555,12.94a3.25,3.25,0,0,0,2.71,1.461h15.587a3.144,3.144,0,0,0,2.753-1.634l3.083-5.611a.621.621,0,0,1,1.143.125l1.7,5.674a.629.629,0,0,0,1.153.127l2.477-4.525a.631.631,0,0,1,1.019-.125l2.577,2.8a.619.619,0,0,0,.923,0l2.567-2.8a.617.617,0,0,1,1.008.117l2.483,4.525a.629.629,0,0,0,1.153-.127l1.688-5.674a.628.628,0,0,1,1.153-.125l3.072,5.608a3.139,3.139,0,0,0,2.755,1.637h5.9a3.164,3.164,0,0,0,2.755-4.692l-22.248-40.608a3.136,3.136,0,0,0-5.509,0l-21.411,39.08-5.752-8.706a3.245,3.245,0,0,1,.646-4.342,16.373,16.373,0,0,0-9.932-29.3l-19.361-.056a3.263,3.263,0,0,0-3.264,3.272v42.074a3.265,3.265,0,0,0,3.255,3.274Zm58.579-32a9.291,9.291,0,1,1-9.235,9.291A9.264,9.264,0,0,1,698.36,315.786ZM647.9,313.895a3.265,3.265,0,0,1,3.272-3.274l7.976.045a4.712,4.712,0,0,1,4.822,4.949,4.634,4.634,0,0,1-4.822,4.875h-8a3.264,3.264,0,0,1-3.253-3.274v-3.321Z" transform="translate(-552.674 -298.287)" fill="#fff"/>
        <path id="Path_132" data-name="Path 132" d="M1091.329,310.554h7.707a2.176,2.176,0,0,1,2.17,2.182v31.731a3.265,3.265,0,0,0,3.255,3.274h4.864a3.264,3.264,0,0,0,3.253-3.274V312.736a2.176,2.176,0,0,1,2.17-2.182h7.708a3.264,3.264,0,0,0,3.253-3.274v-4.9a3.263,3.263,0,0,0-3.253-3.272h-31.123a3.263,3.263,0,0,0-3.253,3.272v4.9a3.264,3.264,0,0,0,3.253,3.274Z" transform="translate(-925.585 -298.237)" fill="#fff"/>
        <path id="Path_133" data-name="Path 133" d="M1342.065,347.741h23.307a3.264,3.264,0,0,0,3.253-3.274v-4.9a3.262,3.262,0,0,0-3.253-3.272h-13.02a2.176,2.176,0,0,1-2.17-2.182v-2.786a2.176,2.176,0,0,1,2.17-2.182h10.531a3.265,3.265,0,0,0,3.255-3.272v-4.9a3.265,3.265,0,0,0-3.255-3.274h-10.531a2.176,2.176,0,0,1-2.17-2.182v-2.785a2.176,2.176,0,0,1,2.17-2.182h13.02a3.264,3.264,0,0,0,3.253-3.274v-4.9a3.264,3.264,0,0,0-3.253-3.272h-23.307a3.265,3.265,0,0,0-3.255,3.272v42.085A3.265,3.265,0,0,0,1342.065,347.741Z" transform="translate(-1132.649 -298.238)" fill="#fff"/>
        <path id="Path_134" data-name="Path 134" d="M1641.605,342.949l-22.14-40.956a3.245,3.245,0,0,0-5.716,0L1592.394,341.5l-5.706-8.633a3.245,3.245,0,0,1,.646-4.342,16.372,16.372,0,0,0-9.932-29.3l-19.361-.056a3.262,3.262,0,0,0-3.262,3.272v42.074a3.264,3.264,0,0,0,3.253,3.274h4.868a3.264,3.264,0,0,0,3.253-3.274V335.2a3.262,3.262,0,0,1,3.253-3.272h1.289a3.252,3.252,0,0,1,2.71,1.459l8.556,12.94a3.245,3.245,0,0,0,2.71,1.461h11.882v0h5.9a3.255,3.255,0,0,0,2.9-1.792l.74-1.472a3.253,3.253,0,0,1,2.9-1.792h15.213a3.251,3.251,0,0,1,2.9,1.792l.742,1.472a3.251,3.251,0,0,0,2.9,1.792h7.99a3.273,3.273,0,0,0,2.858-4.838Zm-64.2-22.459h-9.079a2.176,2.176,0,0,1-2.17-2.182V312.8a2.176,2.176,0,0,1,2.182-2.182l9.067.05a4.713,4.713,0,0,1,4.824,4.95A4.636,4.636,0,0,1,1577.4,320.49Zm41.865,14.033h-5.324a2.181,2.181,0,0,1-1.933-3.17l2.661-5.275a2.165,2.165,0,0,1,3.87,0l2.663,5.275a2.182,2.182,0,0,1-1.935,3.17Z" transform="translate(-1311.007 -298.287)" fill="#fff"/>
        <path id="Path_135" data-name="Path 135" d="M970.382,425.5a5.442,5.442,0,0,0,1.059-3.314.78.78,0,0,0-.928-.733l-2.494.46a.79.79,0,0,1-.772-1.25l1.508-2.046a.768.768,0,0,0-.3-1.191,5.388,5.388,0,0,0-7.25,2.513,5.454,5.454,0,0,0,.883,5.989,5.383,5.383,0,0,0,8.3-.427Z" transform="translate(-820.37 -395.485)" fill="#fff"/>
      </g>
    </g>
  </g>
</svg>
